<?xml version="1.0" encoding="UTF-8"?>
<svg viewBox="0 0 339 350" version="1.1" xmlns="http://www.w3.org/2000/svg" xmlns:xlink="http://www.w3.org/1999/xlink">
    <title>Group</title>
    <g id="Page-1" stroke="none" stroke-width="1" fill="none" fill-rule="evenodd">
        <g id="Social-Icon-Black" transform="translate(-31.000000, -25.000000)" fill="#000000">
            <g id="Group" transform="translate(31.000000, 25.000000)">
                <path
                    d="M85.3622322,0.220723528 L146.99516,67.877916 L191.189323,67.877916 L252.761236,0.220723528 L294.873824,112.131176 L288.903669,117.70209 L338.241928,234.206144 L250.236123,283.894385 L239.572451,312.339561 L201.946866,335.595842 L231.689688,227.006376 L243.092589,255.594517 L287.702129,230.60626 L271.284204,211.882646 L293.672283,198.596355 C281.668121,168.630825 274.205428,150.697029 271.284204,144.794966 C266.902368,135.941872 264.155084,132.957779 257.788305,126.096097 C253.543786,121.521643 249.424338,117.266656 245.429961,113.331137 L261.141512,94.7973601 L244.228421,43.4216737 L215.539294,75.4432969 L214.337753,93.8809834 C211.017263,94.5594496 207.945355,95.6648827 205.122031,97.1972827 C200.887044,99.4958826 201.411302,98.8801859 198.633012,103.057111 C196.780818,105.841727 195.501129,108.866416 194.793945,112.131176 L169.174378,228.886003 L143.885705,112.131176 C142.904842,108.820097 141.597697,105.795409 139.964271,103.057111 C137.514132,98.9496636 137.73687,99.5913348 133.545885,97.1972827 C130.751895,95.601248 127.136322,94.4958149 122.699166,93.8809834 L121.497625,75.4432969 L94.4207214,43.4216737 L76.7308531,95.9973214 L93.6228234,114.531099 C87.8148932,118.775878 82.5847499,123.430851 77.9323936,128.49602 C73.2800373,133.561188 69.2443943,138.99417 65.8254646,144.794966 L43.3458614,198.596355 L67.0270051,211.882646 L49.7783274,230.60626 L94.4207214,255.594517 L106.156863,228.206338 L135.948966,335.595842 L97.5207899,313.539522 L87.8568369,283.894385 L0.207739791,235.406105 L49.5459983,116.502129 L43.3458614,112.131176 L85.3622322,0.220723528 Z"
                    id="Path"></path>
                <polygon id="Path-2"
                    points="90.2837132 178.710752 134.819548 195.05621 143.132716 234.218824 130.108284 218.309528 101.751767 208.421622">
                </polygon>
                <polygon id="Path-2-Copy"
                    transform="translate(221.409069, 206.464788) scale(-1, 1) translate(-221.409069, -206.464788) "
                    points="194.984568 178.710752 239.520402 195.05621 247.833571 234.218824 234.809139 218.309528 206.452621 208.421622">
                </polygon>
                <polygon id="Path-3"
                    points="141.470798 315.320439 146.876876 315.320439 157.558989 329.156677 180.018373 329.156677 190.903268 315.320439 197.643637 315.320439 187.91503 342.345543 169.34825 349.88834 150.344959 342.345543">
                </polygon>
            </g>
        </g>
    </g>
</svg>
